<svg width="24" height="24" viewBox="0 0 24 24" fill="none" xmlns="http://www.w3.org/2000/svg">
<path d="M10 20.5C10.8284 20.5 11.5 19.8284 11.5 19C11.5 18.1716 10.8284 17.5 10 17.5C9.17157 17.5 8.5 18.1716 8.5 19C8.5 19.8284 9.17157 20.5 10 20.5Z" stroke="black"/>
<path d="M17 20.5C17.8284 20.5 18.5 19.8284 18.5 19C18.5 18.1716 17.8284 17.5 17 17.5C16.1716 17.5 15.5 18.1716 15.5 19C15.5 19.8284 16.1716 20.5 17 20.5Z" stroke="black"/>
<path d="M3.5 4H5.5L9.004 15H17" stroke="black" stroke-linecap="round" stroke-linejoin="round"/>
<path d="M8.22399 12.5L6.29999 6.5H18.807C18.8863 6.4999 18.9644 6.51865 19.035 6.5547C19.1056 6.59075 19.1666 6.64307 19.213 6.70734C19.2594 6.77162 19.2899 6.846 19.3019 6.92435C19.3138 7.00271 19.307 7.08279 19.282 7.158L17.615 12.158C17.5818 12.2575 17.5182 12.3441 17.4332 12.4055C17.3481 12.4669 17.2459 12.4999 17.141 12.5H8.22399Z" stroke="black" stroke-linecap="round" stroke-linejoin="round"/>
</svg>
