<svg width="20" height="20" viewBox="0 0 20 20" fill="none" xmlns="http://www.w3.org/2000/svg">
<path d="M10.6889 5L10.8377 6.25H14.6045L14.292 8.75H9.86613L9.57543 6.25H9.57891L9.43012 5L9.42836 4.9848L9.0752 1.94789L8.99402 1.25H4.0625V2.5H7.88098L8.17168 5H4.60453L6.18656 17.655C6.22475 17.9572 6.37174 18.235 6.60003 18.4366C6.82831 18.6381 7.12223 18.7495 7.42676 18.75H13.1982C13.5028 18.7496 13.7968 18.6382 14.0251 18.4366C14.2534 18.2351 14.4004 17.9572 14.4386 17.655L16.0205 5H10.6889ZM6.02047 6.25H8.31703L8.60773 8.75H6.33297L6.02047 6.25ZM13.1988 17.5H7.42672L6.48922 10H8.75309L9.29812 14.6875H10.5565L10.0114 10H14.1359L13.1988 17.5Z" fill="#9C9C9C"/>
</svg>
