<svg width="24" height="24" viewBox="0 0 24 24" fill="none" xmlns="http://www.w3.org/2000/svg">
<path d="M1 20.0909C1 20.5818 1.40909 21 1.90909 21H13.7273C14.2364 21 14.6364 20.5818 14.6364 20.0909V19.1818H1V20.0909ZM7.81818 8.27273C4.40909 8.27273 1 10.0909 1 13.7273H14.6364C14.6364 10.0909 11.2273 8.27273 7.81818 8.27273ZM3.38182 11.9091C4.39091 10.5 6.53636 10.0909 7.81818 10.0909C9.1 10.0909 11.2455 10.5 12.2545 11.9091H3.38182ZM1 15.5455H14.6364V17.3636H1V15.5455ZM16.4545 4.63636V1H14.6364V4.63636H10.0909L10.3 6.45455H18.9909L17.7182 19.1818H16.4545V21H18.0182C18.7818 21 19.4091 20.4091 19.5 19.6636L21 4.63636H16.4545Z" fill="#9C9C9C"/>
</svg>
