<svg width="20" height="20" viewBox="0 0 20 20" fill="none" xmlns="http://www.w3.org/2000/svg">
<path opacity="0.987" fill-rule="evenodd" clip-rule="evenodd" d="M9.01119 1.32643C9.91744 1.22518 10.4537 1.22518 11.4274 1.32643C13.1511 1.58154 14.749 2.37828 15.9899 3.60143C15.1513 4.3941 14.3238 5.19834 13.5074 6.01393C11.9441 4.68893 10.1991 4.38309 8.27244 5.09643C6.8591 5.74643 5.87494 6.79976 5.31994 8.25643C4.41299 7.58121 3.51785 6.89028 2.63494 6.18393C2.57358 6.15163 2.5035 6.1398 2.43494 6.15018C3.83744 3.44601 6.0291 1.83768 9.00994 1.32518" fill="#F44336"/>
<path opacity="0.997" fill-rule="evenodd" clip-rule="evenodd" d="M2.43269 6.14998C2.50353 6.13915 2.57061 6.1504 2.63394 6.18373C3.51686 6.89008 4.41199 7.58102 5.31894 8.25623C5.17622 8.82381 5.08626 9.40335 5.05019 9.98748C5.08103 10.5525 5.17061 11.1071 5.31894 11.6512L2.50019 13.895C1.27269 11.33 1.25019 8.74832 2.43269 6.14998Z" fill="#FFC107"/>
<path opacity="0.999" fill-rule="evenodd" clip-rule="evenodd" d="M15.8563 16.6127C14.9787 15.8386 14.0598 15.1126 13.1038 14.4377C14.0622 13.761 14.6438 12.8327 14.8488 11.6527H10.1526V8.39142C12.8609 8.36892 15.568 8.39183 18.2738 8.46017C18.7872 11.2477 18.1943 13.761 16.4951 16.0002C16.293 16.2149 16.079 16.4194 15.8563 16.6127Z" fill="#448AFF"/>
<path opacity="0.993" fill-rule="evenodd" clip-rule="evenodd" d="M5.31875 11.6526C6.34375 14.2001 8.22292 15.3893 10.9563 15.2201C11.7235 15.1313 12.4592 14.8632 13.1038 14.4376C14.0604 15.1143 14.9779 15.8393 15.8563 16.6126C14.4646 17.8632 12.6901 18.6052 10.8225 18.7176C10.3982 18.7515 9.97182 18.7515 9.5475 18.7176C6.36583 18.3426 4.01667 16.7351 2.5 13.8951L5.31875 11.6526Z" fill="#43A047"/>
</svg>
