<svg width="40" height="40" viewBox="0 0 40 40" fill="none" xmlns="http://www.w3.org/2000/svg">
<path d="M6.25 26.25H12.5C12.8315 26.25 13.1495 26.3817 13.3839 26.6161C13.6183 26.8506 13.75 27.1685 13.75 27.5V32.5M33.75 21.25H25C24.6685 21.25 24.3505 21.3817 24.1161 21.6162C23.8817 21.8506 23.75 22.1685 23.75 22.5V32.5M19.575 6.40503L7.075 10.95C6.83341 11.0374 6.6246 11.197 6.47698 11.4073C6.32937 11.6175 6.25011 11.8681 6.25 12.125V32.5C6.25 32.8316 6.3817 33.1495 6.61612 33.3839C6.85054 33.6183 7.16848 33.75 7.5 33.75H32.5C32.8315 33.75 33.1495 33.6183 33.3839 33.3839C33.6183 33.1495 33.75 32.8316 33.75 32.5V12.125C33.7499 11.8681 33.6706 11.6175 33.523 11.4073C33.3754 11.197 33.1666 11.0374 32.925 10.95L20.425 6.40503C20.1504 6.30574 19.8496 6.30574 19.575 6.40503Z" stroke="black" stroke-width="1.5"/>
</svg>
