<svg width="19" height="19" viewBox="0 0 19 19" fill="none" xmlns="http://www.w3.org/2000/svg">
<path d="M3.75354 14.0906V13.34H4.96666V7.3907C4.96666 6.40979 5.27695 5.54724 5.89752 4.80306C6.5181 4.05887 7.30483 3.59544 8.25771 3.41277V2.2522H9.7591V3.41277C10.712 3.59594 11.4987 4.05962 12.1193 4.80381C12.7399 5.548 13.0501 6.41054 13.0501 7.39145V13.3392H14.2633V14.0899L3.75354 14.0906ZM9.00615 16.0537C8.67184 16.0537 8.38658 15.9349 8.15036 15.6971C7.91414 15.4594 7.79603 15.1741 7.79603 14.8413H10.2208C10.2208 15.1767 10.1019 15.4624 9.86419 15.6986C9.62597 15.9349 9.33996 16.0537 9.00615 16.0537ZM5.71736 13.34H12.3002V7.39145C12.3002 6.47911 11.9796 5.70239 11.3386 5.0613C10.6975 4.4202 9.92075 4.09991 9.0084 4.10041C8.09606 4.10091 7.31934 4.4212 6.67825 5.0613C6.03715 5.70139 5.71686 6.47811 5.71736 7.39145V13.34Z" fill="black"/>
</svg>
