<?xml version="1.0" encoding="utf-8"?>
<!-- Generator: Adobe Illustrator 27.5.0, SVG Export Plug-In . SVG Version: 6.00 Build 0)  -->
<svg version="1.1" xmlns="http://www.w3.org/2000/svg" xmlns:xlink="http://www.w3.org/1999/xlink" x="0px" y="0px"
	 viewBox="0 0 500 500" style="enable-background:new 0 0 500 500;" xml:space="preserve">
<g id="BACKGROUND">
	<g>
		<defs>
			<rect id="SVGID_1_" width="500" height="500"/>
		</defs>
		<clipPath id="SVGID_00000123414618396995548230000017107426004363488145_">
			<use xlink:href="#SVGID_1_"  style="overflow:visible;"/>
		</clipPath>
		
			<rect x="-299.409" y="-74.443" style="clip-path:url(#SVGID_00000123414618396995548230000017107426004363488145_);fill:#DDCB86;" width="1002.093" height="641.34"/>
	</g>
</g>
<g id="OBJECTS">
	<g>
		<defs>
			<rect id="SVGID_00000153684420798322932460000013850181092208026765_" width="500" height="500"/>
		</defs>
		<clipPath id="SVGID_00000093865087136939711580000011225617099876540580_">
			<use xlink:href="#SVGID_00000153684420798322932460000013850181092208026765_"  style="overflow:visible;"/>
		</clipPath>
		<path style="opacity:0.48;clip-path:url(#SVGID_00000093865087136939711580000011225617099876540580_);fill:#B29C56;" d="
			M-240.904,489.904c0,0,78.659-21.135,181.598-81.271S93.4,326.44,153.167,346.116s109.489,69.599,183.322,99.479
			c73.833,29.879,139.853,53.074,139.853,53.074h-717.246V489.904z"/>
		<g style="clip-path:url(#SVGID_00000093865087136939711580000011225617099876540580_);">
			<path style="fill:#FFFFFF;" d="M-0.671,163.571h168.269l-33.783-11.1c0,0,2.182-7.206-3.429-10.54
				c-5.611-3.334-10.783,0.003-10.783,0.003s-0.425-8.94-8.141-12.773c-7.715-3.833-15.955,0.461-15.955,0.461
				s-0.078-19.098-19.578-17.882S56.18,132.797,56.18,132.797s-10.657-5.473-19.263-0.884c-8.606,4.588-6.793,15.356-6.793,15.356
				s-4.331-2.921-7.695,0.686c-3.364,3.607-0.218,8.234-0.218,8.234L-0.671,163.571z"/>
			<path style="fill:#FFFFFF;" d="M308.075,180.21h179.391c0,0-11.109-1.806-19.264-4.609c-8.155-2.803-11.296-4.343-11.296-4.343
				s3.161-5.155,0.439-8.807s-8.186-1.971-8.186-1.971s0.577-8.323-6.389-12.624c-6.967-4.301-13.925-1.795-13.925-1.795
				s1.175-14.96-10.565-20.172c-11.74-5.211-23.484,0.025-29.384,6.414c-5.9,6.39-5.302,13.922-5.302,13.922
				s-8.863-11.864-23.032-6.409c-14.169,5.455-12.845,19.538-12.845,19.538s-7.058-1.534-11.245,3.773
				c-4.187,5.307-1.156,10.256-1.156,10.256L308.075,180.21z"/>
			<path style="fill:#FFFFFF;" d="M74.529,220.015h109.121l-15.955-8.65c0,0,2.232-7.473-2.233-12.43
				c-4.466-4.957-10.522-2.473-10.522-2.473s1.48-18.103-13.485-19.301c-14.964-1.198-18.352,14.212-18.352,14.212
				s-6.981-6.168-16.275-2.015s-7.481,15.995-7.481,15.995s-5.459-1.725-8.317,1.839c-2.858,3.564-0.63,8.036-0.63,8.036
				L74.529,220.015z"/>
			<path style="fill:#FFFFFF;" d="M433.596,228.987h61.601l-11.762-5.294c0,0,3.627-4.404,0.724-8.409
				c-2.903-4.005-7.673-1.511-7.673-1.511s0.708-8.353-4.91-10.589s-10.957,0.792-12.863,3.729
				c-1.906,2.936-1.394,5.895-1.394,5.895s-4.941-5.234-10.34-1.916c-5.399,3.318-2.569,10.028-2.569,10.028
				s-1.857-0.754-2.879,0.665c-1.023,1.418,0,3.456,0,3.456L433.596,228.987z"/>
		</g>
		<g style="clip-path:url(#SVGID_00000093865087136939711580000011225617099876540580_);">
			<path style="fill:#E6A929;" d="M340.164-18.205H102.081c0,0-9.212,3.189-10.274,12.754c-1.063,9.566,7.174,15.943,7.174,15.943
				s-15.453,20.53-5.291,41.442c10.162,20.913,34.608,16.77,34.608,16.77s-1.063,7.191,6.732,9.918
				c7.794,2.727,12.238-2.217,12.238-2.217s7.956,16.176,22.837,12.332c14.88-3.844,17.337-14.208,17.337-14.208
				s5.941,14.086,22.291,13.642c16.35-0.444,21.161-13.154,21.161-13.154s0.991,4.18,6.592,3.839
				c5.602-0.341,7.139-6.013,7.139-6.013s4.172,17.163,21.512,14.429c17.34-2.734,22.407-14.087,22.407-14.087
				s4.809,5.544,12.448,3.488c7.639-2.056,7.73-9.207,7.73-9.207s6.995,4.223,16.915-6.89c9.92-11.113,3.302-26.194,3.302-26.194
				s14.041-5.468,18.301-22.828C351.501-5.805,340.164-18.205,340.164-18.205z"/>
			<g>
				<path style="fill:#B29C56;" d="M272.946,330.823c0,0-7.32,8.302-27.535,22.637c-20.214,14.335-28.236,18.32-28.236,18.32
					l1.11,21.017c0,0,15.149-12.287,32.952-30.203c17.803-17.916,26.322-30.427,26.322-30.427L272.946,330.823z"/>
				<g>
					<polygon style="fill:#B29C56;" points="210.971,20.767 223.071,15.098 232.526,518.648 201.825,518.648 					"/>
					<path style="fill:#B29C56;" d="M142.22,31.403l3.496-0.081c0,0,28.952,36.635,45.714,54.669s23.847,23.88,23.847,23.88
						l-2.48,19.452c0,0-26.926-31.321-44.463-55.59S142.22,31.403,142.22,31.403z"/>
					<path style="fill:#B29C56;" d="M275.221,34.384c0,0-15.544,17.046-31.367,31.087c-15.823,14.041-27.514,20.663-27.514,20.663
						l0.836,16.893c0,0,18.421-14.227,36.13-35.687c17.709-21.46,25.566-32.956,25.566-32.956H275.221z"/>
					<path style="fill:#B29C56;" d="M316.358,73.187c0,0-24.47,35.72-53.879,58.267c-29.409,22.547-40.798,25.933-40.798,25.933
						v20.991c0,0,38.408-26.296,63.742-55.816s34.784-49.376,34.784-49.376H316.358z"/>
					<path style="fill:#B29C56;" d="M328.822,97.579c0,0-8.029,10.064-22.347,15.252c-14.318,5.189-21.052,4.294-21.052,4.294
						l-14.479,15.509c0,0,22.547-2.071,39.285-11c16.738-8.929,22.849-24.056,22.849-24.056H328.822z"/>
					<path style="fill:#B29C56;" d="M116.589,109.844l1.789-4.749c0,0,18.271,31.662,49.526,61.457
						c31.255,29.794,46.398,38.872,46.398,38.872v21.494c0,0-33.073-33.104-59.317-62.763
						C128.741,134.494,116.589,109.844,116.589,109.844z"/>
					<path style="fill:#B29C56;" d="M116.589,191.2l3.915-3.32c0,0,18.773,3.175,37.552-0.393
						c18.78-3.568,20.692-6.899,20.692-6.899l8.185,13.321c0,0-14.528,5.083-37.689,3.525
						C126.084,195.875,116.589,191.2,116.589,191.2z"/>
					<polygon style="fill:#B29C56;" points="152.562,226.917 155.456,226.046 210.848,275.035 208.191,291.027 					"/>
				</g>
			</g>
			<path style="fill:#B78023;" d="M-155.843-18.205h310.358c0,0,8.8,13.537,0,31.532c-8.8,17.995-23.948,17.995-23.948,17.995
				s4.462,11.992-1.03,22.685c-5.492,10.692-15.07,11.436-15.07,11.436s-2.87,9.6-17.372,14.88
				c-14.502,5.28-34.952-5.487-34.952-5.487s-5.73,16.568-22.583,17.033c-16.854,0.466-21.847-12.743-21.847-12.743
				s-0.583,4.563-8.418,5.52c-7.835,0.957-10.185-4.279-10.185-4.279s-6.704,15.923-24.32,13.414
				c-17.616-2.509-18.856-17.952-18.856-17.952s-3.431,9.117-12.145,8.814c-8.715-0.303-10.547-8.334-10.547-8.334
				s-15.8,19.68-35.792,7.756s-10.698-28.888-10.698-28.888s-13.998,4.172-20.857-9.981c-6.86-14.153-2.622-23.364-2.622-23.364
				s-15.929-3.189-20.889-18.423C-162.574-11.828-155.843-18.205-155.843-18.205z"/>
			<g>
				<polygon style="fill:#B29C56;" points="15.516,15.925 19.885,19.232 31.754,518.648 1.528,518.648 				"/>
				<path style="fill:#B29C56;" d="M86.929,6.896c0,0-8.417,39.407-28.342,69.552C38.663,106.594,19,119.88,19,119.88l2.126,16.74
					c0,0,27.119-20.843,44.781-56.524c17.662-35.68,21.022-62.144,21.022-62.144V6.896z"/>
				<path style="fill:#B29C56;" d="M98.981,69.925c0,0-15.816,12.891-29.229,19.909c-13.413,7.018-20.334,7.303-20.334,7.303
					l-7.035,13.709c0,0,10.492-3.01,28.999-14.88c18.507-11.871,27.599-21.257,27.599-21.257V69.925z"/>
				<path style="fill:#B29C56;" d="M-63.398,63.813l3.912,4.76c0,0,6.81,38.684,31.089,72.365
					c24.279,33.68,43.411,43.497,43.411,43.497l-2.385,18.881c0,0-31.561-27.103-51.39-66.695S-63.398,63.813-63.398,63.813z"/>
				<path style="fill:#B29C56;" d="M110.82,130.774c0,0-13.693,39.108-43.058,68.446S19,234.258,19,234.258l-1.152,17.367
					c0,0,32.077-12.888,57.801-46.409s36.528-66.733,36.528-66.733L110.82,130.774z"/>
				<path style="fill:#B29C56;" d="M-28.927,239.531l3.037-0.186c0,0,11.904,9.682,22.382,16.881
					c10.478,7.198,15.127,10.029,15.127,10.029l1.01,16.512c0,0-18.22-17.409-25.574-25.06
					C-20.3,250.056-28.927,239.531-28.927,239.531z"/>
			</g>
			<path style="fill:#B78023;" d="M644.32-18.539H398.174c0,0-24.166-2.48-32.213,16.297c-8.048,18.777,2.581,33.229,2.581,33.229
				s-12.779,5.734-8.161,23.807c4.618,18.073,24.758,16.22,24.758,16.22s-1.605,8.552,5.248,11.225c6.852,2.674,12.341,0,12.341,0
				s3.97,16.212,21.796,16.485c17.826,0.273,24.39-9.533,24.39-9.533s1.851,5.591,10.871,5.439c9.021-0.152,12.891-7.3,12.891-7.3
				s2.899,15.072,17.938,15.362c15.039,0.29,21.062-8.213,21.062-8.213s11.12,16.339,30.892,10.118
				c19.772-6.221,20.177-22.907,20.177-22.907s3.64,3.886,10.298,3.2c6.658-0.686,8.61-6.336,8.61-6.336s8.654,10.792,25.644,5.251
				c16.99-5.541,15.634-20.288,15.634-20.288s17.353,5.799,25.856-8.723c8.503-14.522,0-28.693,0-28.693s9.92-6.732,10.629-22.675
				C660.123-12.516,644.32-18.539,644.32-18.539z"/>
			<g>
				<polygon style="fill:#B29C56;" points="513.624,24.55 521.772,28.936 537.096,502.445 497.504,502.445 				"/>
				<path style="fill:#B29C56;" d="M430.768,45.096c0,0,35.613,45.096,54.202,63.889c18.589,18.793,32.33,24.748,32.33,24.748
					l-4.059,20.089c0,0-34.383-32.197-55.751-61.004c-21.367-28.807-30.933-49.722-30.933-49.722L430.768,45.096z"/>
				<path style="fill:#B29C56;" d="M400.587,63.325c0,0,23.243,17.299,42.12,28.85c18.876,11.551,30.357,12.585,30.357,12.585
					l6.382,11.863c0,0-10.871,3.53-41.446-17.898c-30.574-21.428-42.299-35.4-42.299-35.4H400.587z"/>
				<path style="fill:#B29C56;" d="M516.011,176.409c0,0,13.344-0.948,33.556-14.159c20.212-13.21,30.84-27.028,30.84-27.028h4.517
					c0,0-9.034,22.586-30.026,37.998s-36.598,20.227-36.598,20.227L516.011,176.409z"/>
				<path style="fill:#B29C56;" d="M584.87,264.755c0,0-13.421,16.542-35.38,29.465c-21.96,12.923-29.666,13.706-29.666,13.706
					l-1.329,23.262c0,0,21.136-12.101,42.055-30.827c20.92-18.727,28.626-36.032,28.626-36.032L584.87,264.755z"/>
				<path style="fill:#B29C56;" d="M435.061,193.448l0.99,7.843c0,0,18.323,17.472,40.536,35.208
					c22.213,17.736,37.224,23.583,37.224,23.583l2.2-14.94c0,0-30.76-13.123-52.933-28.439
					C440.906,201.387,435.061,193.448,435.061,193.448z"/>
			</g>
		</g>
		<g style="clip-path:url(#SVGID_00000093865087136939711580000011225617099876540580_);">
			<path style="fill:#69161C;" d="M521.634,318.447v182.373H300.533c0.258-2.71,0.86-5.374,1.872-7.92
				c3.214-8.102,11.176-14.62,19.888-14.404c2.986-16.981,22.791-28.805,39.154-23.375c-0.216-17.156,12.123-33.698,28.623-38.382
				c-10.103-4.002-14.215-17.565-9.766-27.482c4.449-9.914,15.488-15.784,26.345-16.269c10.853-0.481,21.461,3.668,30.73,9.338
				c-0.326-6.522,3.577-13.059,9.47-15.867c5.893-2.808,13.427-1.724,18.289,2.634c0.834-11.937,12.782-21.908,24.674-20.597
				c-5.412-13.446,6.901-29.389,21.317-30.886C514.699,317.238,518.231,317.56,521.634,318.447z"/>
			<g>
				<path style="fill:#69161C;" d="M212.987,508.223c-0.155,1.129-0.364,2.243-0.622,3.346H-3.168V306.777
					c2.645-0.159,5.321,0.186,7.89,1.129c3.009-13.616,20.104-21.082,33.155-16.178c13.051,4.908,20.953,19.361,20.801,33.303
					c-0.148,13.942-7.159,27.104-16.58,37.381c23.749,1.758,43.713,25.076,41.796,48.811c12.646-5.487,29.278,3.657,31.42,17.277
					c11.376-5.234,26.652,2.603,29.036,14.893c7.079-7.78,19.452-10.141,28.896-5.514c9.444,4.627,15.158,15.852,13.347,26.213
					C203.956,470.539,215.518,489.877,212.987,508.223z"/>
			</g>
			<g>
				<path style="fill:#DF7527;" d="M454.827,500.819h-1.16c-3.418-16.599-8.811-32.796-16.019-48.136
					c-0.189-0.405-0.383-0.811-0.58-1.213c-2.566-5.381-5.359-10.656-8.371-15.799c-0.114-0.193-0.224-0.387-0.341-0.576
					c-6.132-10.406-13.154-20.282-21.01-29.461c-0.205-0.239-0.174-0.599,0.064-0.803c0.239-0.205,0.599-0.174,0.8,0.061
					c7.5,8.765,14.245,18.16,20.183,28.047c0.375,0.618,0.743,1.235,1.107,1.857c7.958,13.548,14.419,27.987,19.251,42.948
					c0.14,0.428,0.277,0.856,0.409,1.288C451.431,486.191,453.322,493.468,454.827,500.819z"/>
			</g>
			<g>
				<path style="fill:#DF7527;" d="M501.469,500.819h-1.137c-0.189-7.125-0.834-14.249-1.91-21.313
					c-0.076-0.477-0.152-0.955-0.227-1.432c-2.399-14.852-6.734-29.408-12.881-43.092c-0.22-0.493-0.443-0.985-0.671-1.474
					c-1.914-4.169-4.002-8.25-6.253-12.233c-0.152-0.273-0.057-0.622,0.216-0.773c0.273-0.155,0.622-0.061,0.773,0.212
					c6.378,11.278,11.441,23.352,15.105,35.85c0.118,0.394,0.231,0.792,0.345,1.19C498.832,471.764,501.083,486.29,501.469,500.819z
					"/>
			</g>
			<g>
				<path style="fill:#DF7527;" d="M521.634,423.041v2.009c-6.946-10.005-13.074-20.532-18.342-31.515
					c-0.258-0.534-0.515-1.069-0.766-1.607c-2.626-5.586-5.033-11.286-7.212-17.091c-0.11-0.292,0.038-0.621,0.33-0.731
					c0.296-0.11,0.622,0.038,0.735,0.334c3.445,9.171,7.454,18.077,12.013,26.679c0.22,0.421,0.443,0.841,0.671,1.262
					C512.883,409.481,517.079,416.375,521.634,423.041z"/>
			</g>
			<g>
				<path style="fill:#DF7527;" d="M391.995,500.819h-1.133c0.239-5.207,0.136-10.425-0.296-15.617
					c-0.034-0.406-0.072-0.815-0.11-1.22c-1.072-11.418-3.771-22.685-8.072-33.353c-0.117-0.292,0.023-0.625,0.315-0.743
					c0.288-0.114,0.622,0.026,0.739,0.315c2.342,5.809,4.214,11.797,5.609,17.891c0.216,0.925,0.417,1.853,0.606,2.782
					C391.666,480.712,392.454,490.792,391.995,500.819z"/>
			</g>
			<g>
				<path style="fill:#DF7527;" d="M171.586,456.373c-3.801,4.513-7.344,9.22-10.618,14.101c-0.303,0.451-0.606,0.909-0.902,1.364
					c-3.278,4.987-6.268,10.145-8.97,15.45c-0.136,0.273-0.277,0.546-0.413,0.822c-3.793,7.549-6.996,15.397-9.573,23.458h-1.19
					c2.645-8.345,5.957-16.462,9.895-24.265c0.212-0.421,0.424-0.837,0.64-1.254c5.578-10.827,12.365-21.036,20.263-30.408
					c0.201-0.243,0.561-0.273,0.8-0.072C171.76,455.774,171.79,456.13,171.586,456.373z"/>
			</g>
			<g>
				<path style="fill:#DF7527;" d="M50.773,407.111c-10.281,17.902-16.72,39.515-19.191,64.367
					c-0.049,0.459-0.091,0.917-0.133,1.376c-0.269,2.854-0.481,5.749-0.644,8.686c-0.549,9.982-0.496,20.013-0.08,30.029h-1.137
					c-0.258-6.253-0.379-12.513-0.296-18.762c0.004-0.459,0.011-0.917,0.019-1.376c0.061-3.32,0.178-6.639,0.36-9.955
					c0.792-14.382,2.827-27.782,6.09-40.113c0.136-0.546,0.284-1.084,0.436-1.622c3.331-12.146,7.871-23.238,13.586-33.193
					c0.159-0.273,0.504-0.368,0.777-0.212C50.834,406.494,50.928,406.839,50.773,407.111z"/>
			</g>
			<g>
				<path style="fill:#DF7527;" d="M97.855,461.019c-7.253,10.039-13.4,20.866-18.33,32.223c-0.163,0.379-0.326,0.758-0.489,1.137
					c-2.391,5.612-4.487,11.354-6.272,17.19h-1.186c3.543-11.661,8.307-22.946,14.196-33.61c0.224-0.398,0.443-0.796,0.663-1.19
					c3.187-5.666,6.692-11.149,10.497-16.417c0.182-0.254,0.538-0.311,0.792-0.125C97.98,460.409,98.041,460.765,97.855,461.019z"/>
			</g>
			<g>
				<path style="fill:#DF7527;" d="M34.785,310.059c-4.074,13.01-9.406,25.626-15.875,37.631c-0.186,0.349-0.375,0.697-0.568,1.046
					c-6.188,11.35-13.396,22.15-21.51,32.216v-1.819c10.546-13.264,19.52-27.782,26.675-43.141c0.174-0.375,0.349-0.747,0.519-1.122
					c3.748-8.17,6.984-16.572,9.671-25.148c0.095-0.299,0.413-0.47,0.712-0.375C34.709,309.441,34.879,309.759,34.785,310.059z"/>
			</g>
			<g>
				<path style="fill:#DF7527;" d="M23.731,336.036c-0.187,0-0.371-0.092-0.479-0.262c-5.332-8.338-7.645-18.747-6.347-28.559
					c0.041-0.311,0.326-0.529,0.638-0.489c0.311,0.041,0.53,0.327,0.489,0.638c-1.263,9.55,0.988,19.682,6.178,27.798
					c0.169,0.264,0.092,0.616-0.173,0.785C23.942,336.007,23.836,336.036,23.731,336.036z"/>
			</g>
			<g>
				<path style="fill:#DF7527;" d="M26.06,349.557c-2.74,0-5.475-0.302-8.134-0.914c-0.306-0.071-0.497-0.376-0.426-0.682
					c0.071-0.306,0.377-0.497,0.682-0.426c8.274,1.907,17.314,0.704,24.802-3.3c0.277-0.148,0.621-0.043,0.769,0.233
					c0.148,0.277,0.044,0.621-0.233,0.769C38.199,348.083,32.118,349.557,26.06,349.557z"/>
			</g>
			<g>
				<path style="fill:#DF7527;" d="M35.949,441.391c-0.239,0-0.461-0.151-0.54-0.39c-5.288-16.042-5.59-33.804-0.85-50.016
					c0.088-0.301,0.404-0.474,0.705-0.386c0.301,0.088,0.474,0.404,0.386,0.705c-4.676,15.993-4.378,33.516,0.838,49.341
					c0.098,0.298-0.064,0.62-0.362,0.718C36.068,441.382,36.008,441.391,35.949,441.391z"/>
			</g>
			<g>
				<path style="fill:#DF7527;" d="M31.056,472.993c-0.201,0-0.396-0.107-0.499-0.296c-0.151-0.276-0.049-0.621,0.226-0.772
					c12.112-6.622,21.995-17.773,27.113-30.594c0.116-0.292,0.446-0.433,0.739-0.317c0.292,0.117,0.434,0.447,0.317,0.739
					c-5.215,13.062-15.283,24.423-27.623,31.17C31.242,472.971,31.148,472.993,31.056,472.993z"/>
			</g>
			<g>
				<path style="fill:#DF7527;" d="M29.3,492.806c-0.149,0-0.297-0.058-0.409-0.174c-6.514-6.747-12.385-14.171-17.449-22.066
					c-2.871-4.476-5.634-9.769-4.354-15.085c0.073-0.306,0.382-0.493,0.686-0.419c0.305,0.073,0.493,0.38,0.42,0.686
					c-1.18,4.9,1.464,9.93,4.206,14.205c5.023,7.831,10.847,15.196,17.31,21.89c0.218,0.226,0.212,0.586-0.014,0.804
					C29.584,492.753,29.442,492.806,29.3,492.806z"/>
			</g>
			<g>
				<path style="fill:#DF7527;" d="M86.037,478.023c-0.247,0-0.474-0.162-0.546-0.411c-3.762-13.047-2.324-27.439,3.943-39.484
					c0.145-0.278,0.487-0.386,0.767-0.242c0.278,0.145,0.387,0.488,0.242,0.767c-6.134,11.789-7.541,25.875-3.859,38.644
					c0.087,0.302-0.087,0.617-0.389,0.704C86.142,478.016,86.089,478.023,86.037,478.023z"/>
			</g>
			<g>
				<path style="fill:#DF7527;" d="M79.448,494.383c-0.246,0-0.491-0.002-0.737-0.006c-0.314-0.005-0.565-0.263-0.56-0.577
					c0.005-0.311,0.258-0.56,0.568-0.56c0.003,0,0.006,0,0.008,0c14.426,0.218,28.889-5.97,38.703-16.537
					c0.214-0.23,0.573-0.243,0.803-0.03c0.23,0.214,0.244,0.574,0.03,0.803C108.402,488.096,93.939,494.383,79.448,494.383z"/>
			</g>
			<g>
				<path style="fill:#DF7527;" d="M150.591,488.118c-0.202,0-0.397-0.107-0.5-0.297c-6.674-12.27-5.715-28.158,2.386-39.536
					c0.182-0.256,0.537-0.316,0.793-0.133c0.256,0.182,0.316,0.537,0.133,0.793c-7.855,11.032-8.784,26.437-2.313,38.333
					c0.15,0.276,0.048,0.621-0.228,0.771C150.776,488.096,150.683,488.118,150.591,488.118z"/>
			</g>
			<g>
				<path style="fill:#DF7527;" d="M159.877,471.866c-0.263,0-0.499-0.184-0.556-0.451c-0.065-0.307,0.132-0.609,0.439-0.673
					c8.227-1.728,15.804-5.695,21.911-11.471c0.228-0.216,0.588-0.205,0.804,0.022c0.216,0.228,0.206,0.588-0.022,0.804
					c-6.26,5.921-14.026,9.987-22.459,11.758C159.955,471.863,159.916,471.866,159.877,471.866z"/>
			</g>
			<g>
				<path style="fill:#DF7527;" d="M389.268,471.029c-0.031,0-0.062-0.003-0.094-0.008c-0.31-0.051-0.519-0.344-0.468-0.654
					c1.914-11.574,1.179-23.642-2.125-34.899c-0.088-0.301,0.084-0.617,0.385-0.706c0.302-0.087,0.617,0.084,0.706,0.385
					c3.352,11.421,4.097,23.663,2.155,35.405C389.783,470.832,389.542,471.029,389.268,471.029z"/>
			</g>
			<g>
				<path style="fill:#DF7527;" d="M391.084,485.333c-0.053,0-0.107-0.007-0.16-0.023c-10.605-3.095-20.197-9.588-27.01-18.284
					c-0.194-0.247-0.15-0.604,0.097-0.798c0.247-0.194,0.604-0.15,0.798,0.097c6.668,8.51,16.055,14.865,26.434,17.894
					c0.302,0.088,0.474,0.403,0.386,0.705C391.557,485.172,391.33,485.333,391.084,485.333z"/>
			</g>
			<g>
				<path style="fill:#DF7527;" d="M428.923,435.719c-0.007,0-0.013,0-0.02,0c-0.313-0.01-0.56-0.274-0.549-0.587
					c0.51-15.182-3.634-30.643-11.669-43.536c-0.166-0.266-0.084-0.617,0.182-0.783c0.265-0.165,0.616-0.085,0.783,0.182
					c8.152,13.081,12.357,28.77,11.84,44.175C429.48,435.477,429.228,435.719,428.923,435.719z"/>
			</g>
			<g>
				<path style="fill:#DF7527;" d="M437.402,452.742c-0.056,0-0.112-0.008-0.168-0.026c-9.34-2.89-18.254-7.02-26.496-12.275
					c-0.265-0.169-0.342-0.52-0.174-0.785c0.169-0.265,0.52-0.342,0.785-0.174c8.156,5.2,16.978,9.287,26.221,12.148
					c0.3,0.092,0.468,0.411,0.375,0.711C437.869,452.586,437.645,452.742,437.402,452.742z"/>
			</g>
			<g>
				<path style="fill:#DF7527;" d="M449.024,479.05c-0.086,0-0.172-0.019-0.254-0.06c-0.28-0.141-0.394-0.482-0.253-0.763
					c5.061-10.104,7.094-21.846,5.726-33.063c-0.038-0.312,0.184-0.595,0.496-0.633c0.312-0.037,0.595,0.184,0.633,0.496
					c1.395,11.437-0.679,23.408-5.839,33.71C449.433,478.935,449.233,479.05,449.024,479.05z"/>
			</g>
			<g>
				<path style="fill:#DF7527;" d="M485.722,435.097c-0.064,0-0.13-0.011-0.194-0.034c-12.005-4.355-21.925-14.066-26.535-25.974
					c-0.114-0.293,0.032-0.622,0.325-0.735c0.294-0.113,0.622,0.032,0.735,0.325c4.494,11.607,14.162,21.071,25.863,25.316
					c0.295,0.107,0.447,0.433,0.34,0.728C486.173,434.953,485.955,435.097,485.722,435.097z"/>
			</g>
			<g>
				<path style="fill:#DF7527;" d="M494.875,457.756c-0.06,0-0.122-0.01-0.182-0.03c-0.298-0.101-0.457-0.423-0.356-0.721
					c4.229-12.506,5.798-26.062,4.539-39.204c-0.03-0.313,0.199-0.59,0.511-0.62c0.311-0.031,0.59,0.199,0.62,0.511
					c1.275,13.3-0.314,27.02-4.594,39.677C495.333,457.607,495.112,457.756,494.875,457.756z"/>
			</g>
			<g>
				<path style="fill:#DF7527;" d="M498.933,479.712c-0.093,0-0.187-0.023-0.274-0.071c-13.728-7.566-24.852-19.596-31.324-33.871
					c-0.13-0.286-0.003-0.623,0.283-0.752c0.285-0.13,0.622-0.003,0.752,0.283c6.371,14.054,17.323,25.896,30.837,33.345
					c0.275,0.151,0.375,0.497,0.224,0.772C499.328,479.606,499.134,479.712,498.933,479.712z"/>
			</g>
			<g>
				<path style="fill:#DF7527;" d="M503.673,393.652c-0.077,0-0.155-0.016-0.231-0.049c-11.962-5.318-22.169-14.481-28.741-25.802
					c-0.158-0.271-0.066-0.619,0.206-0.777c0.271-0.157,0.619-0.065,0.777,0.206c6.453,11.115,16.476,20.112,28.22,25.334
					c0.287,0.128,0.416,0.464,0.289,0.751C504.099,393.527,503.891,393.652,503.673,393.652z"/>
			</g>
			<g>
				<path style="fill:#DF7527;" d="M508.477,402.858c-0.081,0-0.164-0.017-0.243-0.055c-0.283-0.134-0.405-0.473-0.27-0.757
					c3.308-6.982,4.826-14.749,4.39-22.463c-0.017-0.313,0.222-0.582,0.536-0.6c0.326-0.004,0.582,0.222,0.6,0.535
					c0.446,7.903-1.109,15.861-4.498,23.014C508.894,402.738,508.689,402.858,508.477,402.858z"/>
			</g>
			<g>
				<g>
					<g>
						<g>
							<path style="fill:#DF7527;" d="M32.026,437.428c-0.254,0.678-0.504,1.357-0.765,2.027
								c-2.232,5.866-4.695,11.646-7.378,17.323c-0.451,0.955-0.91,1.91-1.372,2.857c-6.211,12.714-13.533,24.89-21.851,36.339
								c-1.228,1.69-2.516,3.335-3.827,4.961v-86.832c3.494-4.862,7.439-9.36,11.975-13.317c2.96-2.585,6.211-4.949,9.951-6.154
								c3.733-1.213,8.034-1.141,11.373,0.925c3.782,2.342,5.745,6.791,6.586,11.157C38.711,417.017,35.668,427.591,32.026,437.428z
								"/>
						</g>
					</g>
					<g>
						<g>
							<path style="fill:#BF5222;" d="M10.448,435.458c-0.595,1.004-1.19,2.005-1.774,2.998c-1.512,2.573-2.975,5.177-4.385,7.803
								v0.004c-0.311,0.58-0.618,1.16-0.928,1.743c-2.323,4.426-4.502,8.928-6.529,13.491v-2.77
								c3.259-7.117,6.882-14.075,10.861-20.847c0.584-0.997,1.182-1.997,1.777-3.001l0.08-0.121c0-0.004,0-0.004,0-0.008
								c0.36-0.606,0.72-1.209,1.084-1.819c0-0.004,0-0.004,0-0.008c5.487-9.269,10.759-18.872,10.255-29.347
								c-0.015-0.311,0.227-0.58,0.538-0.595c0.318-0.008,0.58,0.227,0.595,0.542C22.578,415.077,16.413,425.438,10.448,435.458z"/>
						</g>
					</g>
					<g>
						<g>
							<path style="fill:#BF5222;" d="M10.118,435.359c-0.308,0-0.562-0.247-0.568-0.557c-0.14-6.753-0.838-13.543-2.074-20.184
								c-0.058-0.309,0.146-0.605,0.455-0.663c0.31-0.058,0.605,0.146,0.663,0.455c1.248,6.701,1.952,13.553,2.093,20.368
								c0.007,0.314-0.243,0.574-0.556,0.58C10.126,435.359,10.122,435.359,10.118,435.359z"/>
						</g>
					</g>
					<g>
						<g>
							<path style="fill:#BF5222;" d="M3.672,448.1c-0.155,0-0.31-0.063-0.423-0.188c-0.21-0.233-0.191-0.593,0.042-0.803
								c6.545-5.895,15.966-8.439,24.589-6.642c0.307,0.064,0.505,0.365,0.44,0.673c-0.064,0.307-0.367,0.503-0.672,0.44
								c-8.274-1.726-17.316,0.717-23.596,6.374C3.944,448.052,3.808,448.1,3.672,448.1z"/>
						</g>
					</g>
					<g>
						<g>
							<path style="fill:#C4611E;" d="M31.26,439.456c-2.232,5.866-4.695,11.646-7.378,17.323c-0.451,0.955-0.91,1.91-1.372,2.857
								c-6.211,12.714-13.533,24.89-21.851,36.339c-1.228,1.69-2.516,3.335-3.827,4.961v-29.499
								C6.965,459.439,18.535,448.653,31.26,439.456z"/>
						</g>
					</g>
				</g>
				<g>
					<g>
						<g>
							<path style="fill:#DF7527;" d="M87.062,434.431c-0.159,2.622-1.129,5.12-2.168,7.53c-3.062,7.128-6.776,13.938-10.994,20.441
								c-2.766,4.271-5.745,8.405-8.898,12.411c-4.87,6.192-10.152,12.078-15.689,17.675c-3.388,3.426-6.871,6.749-10.429,9.997
								c-2.149,1.959-4.32,3.888-6.514,5.794c-1.277,1.11-2.569,2.206-3.873,3.289H-3.168v-28.464
								c8.455-9.33,17.497-18.13,27.05-26.327c5.271-4.525,10.698-8.868,16.269-13.017c10.16-7.56,21.059-14.601,33.341-17.69
								c3.729-0.932,8.117-1.342,10.994,1.201C86.456,429.012,87.225,431.808,87.062,434.431z"/>
						</g>
					</g>
					<g>
						<g>
							<path style="fill:#BF5222;" d="M79.513,437.929l-36.82,35.119l-1.133,1.08L2.308,511.569H0.663l24.875-23.727l0.97-0.925
								l14.457-13.79l7.716-7.363l1.478-1.406l28.57-27.251c0.227-0.22,0.587-0.208,0.803,0.019
								C79.748,437.353,79.741,437.713,79.513,437.929z"/>
						</g>
					</g>
					<g>
						<g>
							<path style="fill:#BF5222;" d="M49.21,466.125c-0.052,0-0.105-0.007-0.158-0.023c-0.302-0.087-0.475-0.403-0.388-0.704
								c3.333-11.5,7.98-21.167,14.207-29.552c0.187-0.252,0.543-0.305,0.795-0.117c0.252,0.187,0.305,0.543,0.117,0.795
								c-6.145,8.274-10.734,17.822-14.028,29.191C49.683,465.963,49.456,466.125,49.21,466.125z"/>
						</g>
					</g>
					<g>
						<g>
							<path style="fill:#BF5222;" d="M45.975,474.26c-1.673,0-3.239-0.058-4.662-0.149c-0.313-0.02-0.551-0.29-0.531-0.604
								c0.02-0.313,0.295-0.55,0.603-0.531c6.642,0.423,16.463,0.136,25.529-3.631c0.29-0.12,0.623,0.017,0.743,0.307
								c0.12,0.29-0.017,0.622-0.307,0.743C60.032,473.436,52.253,474.26,45.975,474.26z"/>
						</g>
					</g>
					<g>
						<g>
							<path style="fill:#BF5222;" d="M26.153,488.605c-0.263,0-0.498-0.183-0.555-0.45c-2.164-10.163-0.523-21.287,4.503-30.52
								c0.15-0.276,0.495-0.378,0.771-0.228c0.276,0.15,0.377,0.495,0.227,0.771c-4.897,8.998-6.497,19.838-4.389,29.739
								c0.065,0.307-0.131,0.609-0.438,0.674C26.233,488.601,26.193,488.605,26.153,488.605z"/>
						</g>
					</g>
					<g>
						<g>
							<path style="fill:#C4611E;" d="M73.901,462.402c-2.766,4.271-5.745,8.405-8.898,12.411
								c-4.87,6.192-10.152,12.078-15.689,17.675c-3.388,3.426-6.871,6.749-10.429,9.997c-2.149,1.959-4.32,3.888-6.514,5.794
								c-1.277,1.11-2.569,2.206-3.873,3.289H2.638c14.238-14.575,30.434-27.244,48.045-37.468c0.781-0.455,1.565-0.906,2.353-1.349
								C59.8,468.936,66.765,465.476,73.901,462.402z"/>
						</g>
					</g>
				</g>
				<g>
					<g>
						<g>
							<path style="fill:#DF7527;" d="M135.232,472.426c-0.894,1.868-1.997,3.615-3.259,5.264
								c-3.096,4.036-7.124,7.477-11.297,10.653c-3.107,2.361-6.291,4.578-9.224,6.783c-7.682,5.772-15.575,11.244-23.647,16.443
								H3.198c2.096-2.168,4.32-4.225,6.647-6.188c11.13-9.395,24.549-16.553,37.248-22.673c5.885-2.835,11.865-5.446,17.91-7.894
								c16.428-6.651,33.356-12.089,50.227-17.466C127.494,453.436,142.883,456.498,135.232,472.426z"/>
						</g>
					</g>
					<g>
						<g>
							<path style="fill:#BF5222;" d="M121.567,468.117c-8.815,4.866-17.633,9.781-26.444,14.738
								c-0.614,0.345-1.224,0.69-1.834,1.038c-8.606,4.843-17.205,9.728-25.788,14.655c-3.104,1.777-6.204,3.559-9.303,5.351
								c-0.47,0.265-0.936,0.538-1.402,0.807v0.004c-3.949,2.277-7.894,4.566-11.835,6.859h-2.255
								c7.208-4.203,14.431-8.383,21.665-12.536c3.054-1.758,6.116-3.509,9.175-5.256c0.474-0.269,0.944-0.538,1.417-0.807
								c5.806-3.312,11.619-6.605,17.432-9.88c0.208-0.121,0.417-0.239,0.625-0.352c9.33-5.256,18.668-10.463,27.998-15.617
								c0.273-0.152,0.622-0.049,0.773,0.224C121.942,467.621,121.839,467.965,121.567,468.117z"/>
						</g>
					</g>
					<g>
						<g>
							<path style="fill:#BF5222;" d="M98.753,484.076c-1.964,0-3.923-0.069-5.873-0.208c-0.313-0.022-0.549-0.294-0.527-0.607
								c0.022-0.313,0.292-0.558,0.607-0.527c10.945,0.779,22.22-0.673,32.608-4.202c0.298-0.101,0.62,0.058,0.721,0.355
								c0.101,0.297-0.058,0.62-0.355,0.721C117.255,482.556,107.963,484.076,98.753,484.076z"/>
						</g>
					</g>
					<g>
						<g>
							<path style="fill:#BF5222;" d="M74.088,494.173c-0.069,0-0.14-0.013-0.209-0.04c-0.292-0.115-0.435-0.446-0.32-0.738
								c3.338-8.458,9.184-16.096,16.459-21.508c0.252-0.188,0.608-0.135,0.795,0.117c0.187,0.252,0.135,0.608-0.117,0.795
								c-7.108,5.287-12.818,12.75-16.08,21.013C74.528,494.037,74.314,494.173,74.088,494.173z"/>
						</g>
					</g>
					<g>
						<g>
							<path style="fill:#BF5222;" d="M67.182,505.62c-3.352,0-6.706-0.238-10.036-0.719c-0.311-0.045-0.526-0.333-0.481-0.644
								c0.045-0.311,0.331-0.526,0.644-0.481c11.652,1.682,23.624,0.352,34.622-3.846c0.294-0.112,0.622,0.035,0.734,0.328
								c0.112,0.293-0.035,0.622-0.328,0.734C84.301,504.059,75.752,505.62,67.182,505.62z"/>
						</g>
					</g>
				</g>
				<g>
					<g>
						<path style="fill:#C4611E;" d="M120.676,488.342c-3.107,2.361-6.291,4.578-9.224,6.783
							c-7.682,5.772-15.575,11.244-23.647,16.443H3.198c2.096-2.168,4.32-4.225,6.647-6.188c9.698-0.784,19.38-1.751,29.04-2.895
							c8.511-1.012,17.012-2.16,25.485-3.452c1.046-0.155,2.088-0.318,3.13-0.485C85.334,495.762,103.077,492.363,120.676,488.342z"
							/>
					</g>
				</g>
			</g>
			<g>
				<g>
					<path style="fill:#DF7527;" d="M521.634,417.569v77.87c-0.841-0.917-1.675-1.846-2.486-2.789
						c-9.22-10.732-17.504-22.276-24.731-34.448c-0.538-0.906-1.069-1.819-1.595-2.732c-3.134-5.438-6.06-10.998-8.762-16.667
						c-0.315-0.648-0.622-1.304-0.929-1.959c-4.426-9.508-8.318-19.801-7.17-30.23c0.485-4.423,2.084-9.019,5.662-11.657
						c3.161-2.331,7.439-2.751,11.259-1.846c3.824,0.898,7.257,2.994,10.421,5.324C510.473,403.733,516.45,410.319,521.634,417.569z
						"/>
				</g>
			</g>
			<g>
				<g>
					<path style="fill:#BF5222;" d="M507.423,435.319c5.196,7.394,9.94,15.064,14.211,22.984v2.414
						c-2.816-5.332-5.84-10.554-9.076-15.655c-0.352-0.561-0.712-1.122-1.072-1.679c-1.614-2.501-3.278-4.972-4.995-7.413
						c-0.663-0.944-1.338-1.891-2.012-2.842c-6.757-9.504-13.745-19.331-14.128-30.893c-0.011-0.315,0.235-0.576,0.549-0.587
						c0.303-0.015,0.576,0.235,0.587,0.549c0.349,10.486,6.382,19.63,12.604,28.422c0.409,0.58,0.819,1.156,1.224,1.728
						c0.03,0.042,0.057,0.08,0.087,0.121C506.081,433.424,506.756,434.372,507.423,435.319z"/>
				</g>
			</g>
			<g>
				<g>
					<path style="fill:#BF5222;" d="M504.753,433.003c-0.298,0-0.549-0.232-0.567-0.534c-0.412-6.803-0.267-13.69,0.433-20.471
						c0.032-0.312,0.309-0.534,0.624-0.507c0.312,0.032,0.539,0.312,0.507,0.624c-0.693,6.719-0.837,13.544-0.429,20.285
						c0.019,0.313-0.219,0.583-0.533,0.602C504.776,433.003,504.764,433.003,504.753,433.003z"/>
				</g>
			</g>
			<g>
				<g>
					<path style="fill:#BF5222;" d="M512.212,445.18c-0.12,0-0.242-0.038-0.345-0.117c-6.719-5.128-15.93-6.829-24.035-4.438
						c-0.301,0.089-0.617-0.083-0.706-0.384c-0.089-0.301,0.083-0.617,0.384-0.706c8.448-2.491,18.045-0.721,25.047,4.624
						c0.249,0.191,0.297,0.547,0.107,0.797C512.552,445.103,512.383,445.18,512.212,445.18z"/>
				</g>
			</g>
			<g>
				<g>
					<path style="fill:#C4611E;" d="M484.06,438.802c13.696,8.299,26.33,18.338,37.574,29.749v26.888
						c-0.841-0.917-1.675-1.846-2.486-2.789c-9.22-10.732-17.504-22.276-24.731-34.448c-0.538-0.906-1.069-1.819-1.595-2.732
						C489.687,450.031,486.762,444.471,484.06,438.802z"/>
				</g>
			</g>
			<g>
				<g>
					<path style="fill:#DF7527;" d="M521.634,479.249v21.571h-41.879c-3.183-2.497-6.317-5.059-9.387-7.693
						c-5.972-5.131-11.717-10.569-17.072-16.348c-3.467-3.737-6.776-7.617-9.876-11.646c-4.729-6.135-8.985-12.623-12.616-19.483
						c-1.228-2.315-2.399-4.729-2.77-7.329c-0.375-2.596,0.163-5.45,1.986-7.341c2.66-2.77,7.071-2.721,10.861-2.092
						c12.491,2.081,23.928,8.216,34.663,14.927c5.893,3.684,11.657,7.572,17.277,11.653
						C502.906,462.79,512.535,470.737,521.634,479.249z"/>
				</g>
			</g>
			<g>
				<g>
					<path style="fill:#BF5222;" d="M511.303,500.819h-1.804l-16.754-13.563c-0.008-0.004-0.011-0.008-0.015-0.011l-16.121-13.052
						l-1.213-0.981l-39.552-32.019c-0.246-0.197-0.284-0.553-0.087-0.8c0.197-0.242,0.557-0.28,0.8-0.083l30.684,24.841l1.588,1.285
						l8.314,6.73l15.503,12.547l1.046,0.849L511.303,500.819z"/>
				</g>
			</g>
			<g>
				<g>
					<path style="fill:#BF5222;" d="M468.288,466.841c-0.229,0-0.445-0.14-0.531-0.366c-4.206-11.063-9.554-20.207-16.351-27.956
						c-0.207-0.236-0.184-0.595,0.053-0.802c0.236-0.206,0.595-0.183,0.802,0.053c6.888,7.852,12.304,17.11,16.559,28.301
						c0.111,0.293-0.036,0.622-0.329,0.734C468.423,466.829,468.355,466.841,468.288,466.841z"/>
				</g>
			</g>
			<g>
				<g>
					<path style="fill:#BF5222;" d="M466.667,474.914c-5.04,0-10.626-0.588-16.067-2.347c-0.299-0.097-0.463-0.417-0.366-0.716
						c0.097-0.299,0.416-0.461,0.716-0.366c9.343,3.02,19.155,2.508,25.74,1.547c0.311-0.047,0.599,0.17,0.645,0.48
						c0.045,0.311-0.17,0.599-0.48,0.645C473.968,474.579,470.473,474.914,466.667,474.914z"/>
				</g>
			</g>
			<g>
				<g>
					<path style="fill:#BF5222;" d="M493.093,487.376c-0.024,0-0.049-0.001-0.074-0.005c-0.311-0.04-0.531-0.325-0.491-0.637
						c1.298-10.04-1.176-20.714-6.788-29.285c-0.172-0.262-0.098-0.615,0.164-0.787c0.262-0.171,0.614-0.099,0.787,0.164
						c5.758,8.794,8.296,19.748,6.964,30.053C493.618,487.167,493.374,487.376,493.093,487.376z"/>
				</g>
			</g>
			<g>
				<g>
					<path style="fill:#C4611E;" d="M509.31,500.819h-29.555c-3.183-2.497-6.317-5.059-9.387-7.693
						c-5.972-5.131-11.717-10.569-17.072-16.348c-3.467-3.737-6.776-7.617-9.876-11.646c7.363,2.482,14.586,5.366,21.635,8.621
						h0.004c0.822,0.379,1.637,0.762,2.452,1.152h0.004C482.339,481.974,496.368,490.693,509.31,500.819z"/>
				</g>
			</g>
			<g>
				<g>
					<path style="fill:#DF7527;" d="M455.789,500.819c0.038,0.015,0.072,0.03,0.106,0.049c-0.242-0.015-0.481-0.03-0.724-0.049
						h-46.483c-0.011-0.008-0.026-0.015-0.038-0.023c-3.104-1.959-6.454-3.911-9.743-6.014c-4.419-2.827-8.712-5.927-12.127-9.702
						c-1.387-1.539-2.63-3.191-3.676-4.98c-8.917-15.257,6.173-19.555,18.713-16.655c17.254,3.991,34.561,8.034,51.478,13.332
						c6.226,1.948,12.4,4.07,18.493,6.416c12.119,4.669,24.92,10.171,36.13,17.626H455.789z"/>
				</g>
			</g>
			<g>
				<g>
					<path style="fill:#BF5222;" d="M455.895,500.869c-0.242-0.015-0.481-0.03-0.724-0.049h-2.05
						c-0.125-0.061-0.25-0.117-0.375-0.174c-8.959-4.214-17.929-8.387-26.902-12.517c-0.64-0.299-1.281-0.595-1.918-0.883h-0.004
						c-9.186-4.229-18.368-8.413-27.547-12.547c-0.284-0.129-0.413-0.466-0.284-0.75c0.129-0.288,0.466-0.417,0.754-0.288
						c9.72,4.381,19.448,8.811,29.172,13.294c0.22,0.099,0.436,0.197,0.652,0.303c6.063,2.789,12.119,5.601,18.175,8.432h0.004
						c0.493,0.227,0.985,0.459,1.474,0.69c3.157,1.474,6.313,2.952,9.466,4.441C455.827,500.835,455.861,500.85,455.895,500.869z"/>
				</g>
			</g>
			<g>
				<g>
					<path style="fill:#BF5222;" d="M413.537,489.03c-6.942,0-13.9-0.846-20.581-2.525c-0.305-0.077-0.489-0.386-0.413-0.69
						c0.077-0.305,0.386-0.489,0.69-0.413c10.642,2.675,21.997,3.207,32.842,1.542c0.309-0.049,0.601,0.165,0.648,0.476
						c0.048,0.31-0.165,0.6-0.476,0.648C422.064,488.71,417.803,489.03,413.537,489.03z"/>
				</g>
			</g>
			<g>
				<g>
					<path style="fill:#BF5222;" d="M445.768,496.816c-0.21,0-0.412-0.117-0.51-0.318c-3.922-7.971-10.219-14.945-17.733-19.638
						c-0.266-0.167-0.347-0.517-0.181-0.783c0.167-0.266,0.517-0.347,0.783-0.181c7.691,4.804,14.137,11.943,18.15,20.101
						c0.139,0.282,0.023,0.622-0.259,0.761C445.938,496.797,445.853,496.816,445.768,496.816z"/>
				</g>
			</g>
			<g>
				<path style="fill:#C4611E;" d="M408.688,500.819c-0.011-0.008-0.026-0.015-0.038-0.023c-3.104-1.959-6.454-3.911-9.743-6.014
					c17.872,2.577,35.831,4.532,53.839,5.863c0.807,0.061,1.618,0.117,2.425,0.174H408.688z"/>
			</g>
		</g>
		<g style="clip-path:url(#SVGID_00000093865087136939711580000011225617099876540580_);">
			<g>
				<g>
					<g>
						<path style="fill-rule:evenodd;clip-rule:evenodd;fill:#68432F;" d="M92.158,346.311c-0.209-0.448-0.289-0.927-0.249-1.385
							h5.82c0.08,1.176-0.578,2.332-1.714,2.85C94.55,348.434,92.816,347.776,92.158,346.311z"/>
						<rect x="93.653" y="345.534" style="fill-rule:evenodd;clip-rule:evenodd;fill:#68432F;" width="2.501" height="138.63"/>
						<rect x="89.487" y="348.344" style="fill-rule:evenodd;clip-rule:evenodd;fill:#68432F;" width="10.633" height="1.654"/>
						<rect x="89.637" y="352.181" style="fill-rule:evenodd;clip-rule:evenodd;fill:#68432F;" width="10.633" height="1.654"/>
						<polygon style="fill-rule:evenodd;clip-rule:evenodd;fill:#E7AA2A;" points="82.86,314.94 88.391,341.588 101.117,341.837 
							107.485,314.97 						"/>
						<path style="fill-rule:evenodd;clip-rule:evenodd;fill:#68432F;" d="M82.94,312.289c0.927-2.033,1.864-4.076,2.8-6.109
							l19.094,0.13l2.292,6.109L82.94,312.289z"/>
						<path style="fill-rule:evenodd;clip-rule:evenodd;fill:#68432F;" d="M99.124,304.197c0.299,0.678,0.419,1.385,0.369,2.083
							h-8.74c-0.11-1.774,0.857-3.508,2.571-4.285C95.526,301.008,98.127,301.995,99.124,304.197z"/>
						<path style="fill-rule:evenodd;clip-rule:evenodd;fill:#68432F;" d="M79.721,311.801v2.651c0,0.289,0.229,0.528,0.518,0.528
							h29.149c0.289,0,0.528-0.239,0.528-0.528v-2.651c0-0.279-0.239-0.518-0.528-0.518H80.239
							C79.95,311.283,79.721,311.522,79.721,311.801z"/>
						<path style="fill-rule:evenodd;clip-rule:evenodd;fill:#68432F;" d="M88.85,343.68c-0.448-0.668-0.618-1.365-0.548-2.053
							h12.816c0.169,1.744-1.266,3.458-3.777,4.205C94.111,346.81,90.295,345.843,88.85,343.68z"/>
						<path style="fill-rule:evenodd;clip-rule:evenodd;fill:#BB9785;" d="M87.315,307.974c0.349-0.648,1.166-0.897,1.824-0.548
							c0.648,0.359,0.897,1.176,0.548,1.824c-0.359,0.658-1.176,0.897-1.824,0.548C87.205,309.449,86.956,308.632,87.315,307.974z"
							/>
						<path style="fill-rule:evenodd;clip-rule:evenodd;fill:#BB9785;" d="M93.175,303.39c0.229-0.419,0.747-0.578,1.166-0.359
							c0.419,0.229,0.578,0.757,0.359,1.176c-0.229,0.419-0.757,0.578-1.176,0.349C93.105,304.327,92.945,303.808,93.175,303.39z"/>
					</g>
					<path style="fill-rule:evenodd;clip-rule:evenodd;fill:#68432F;" d="M89.896,460.805l-1.286,33.863
						c0,2.671,1.545,4.833,3.448,4.833h5.74c1.903,0,3.448-2.163,3.448-4.833l-1.714-33.863c0-2.671-1.545-4.833-3.448-4.833h-2.741
						C91.441,455.972,89.896,458.134,89.896,460.805z"/>
					<path style="fill-rule:evenodd;clip-rule:evenodd;fill:#68432F;" d="M83.628,497.498v0.11c0,1.176,0.947,2.123,2.123,2.123
						h17.808c1.176,0,2.133-0.947,2.133-2.123v-0.11c0-1.176-0.957-2.133-2.133-2.133H85.75
						C84.574,495.366,83.628,496.322,83.628,497.498z"/>
				</g>
				<path style="fill-rule:evenodd;clip-rule:evenodd;fill:#BB9785;" d="M93.424,458.105c0.957-0.628,2.511-0.628,3.468,0
					c0.957,0.628,0.957,1.644,0,2.272c-0.957,0.628-2.511,0.628-3.468,0C92.467,459.749,92.467,458.732,93.424,458.105z"/>
			</g>
			<g>
				<g>
					<g>
						<rect x="143.712" y="299.864" style="fill:#DF7527;" width="251.391" height="187.026"/>
						<rect x="288.713" y="475.426" style="fill:#B75A13;" width="20.362" height="8.542"/>
						<rect x="250.999" y="467.752" style="fill:#BE5A0A;" width="20.362" height="8.542"/>
						<rect x="214.458" y="454.991" style="fill:#B75A13;" width="20.362" height="8.542"/>
						<rect x="187.39" y="333.303" style="fill:#BE5A0A;" width="20.362" height="8.542"/>
						<rect x="188.639" y="472.975" style="fill:#BE5A0A;" width="20.362" height="8.542"/>
						<rect x="380.97" y="365.951" style="fill:#B75A13;" width="7.965" height="8.542"/>
						<rect x="153.024" y="379.258" style="fill:#B75A13;" width="7.965" height="8.542"/>
						<rect x="387.161" y="437.211" style="fill:#B75A13;" width="7.965" height="8.542"/>
						<rect x="152.479" y="436.017" style="fill:#BE5A0A;" width="7.965" height="8.542"/>
						<rect x="387.161" y="394.326" style="fill:#BE5A0A;" width="7.965" height="8.542"/>
						<rect x="298.745" y="377.541" style="fill:#BE5A0A;" width="7.965" height="8.542"/>
						<rect x="143.757" y="355.243" style="fill:#BE5A0A;" width="7.965" height="8.542"/>
						<rect x="381.091" y="463.337" style="fill:#BE5A0A;" width="7.965" height="8.542"/>
						<rect x="344.576" y="347.756" style="fill:#BE5A0A;" width="20.362" height="8.542"/>
					</g>
					<rect x="126.728" y="486.89" style="fill:#68432F;" width="286.833" height="13.487"/>
					<rect x="141.092" y="250.695" style="fill:#68432F;" width="261.235" height="28.015"/>
					<rect x="138.455" y="278.71" style="fill:#BE5A0A;" width="266.509" height="7.454"/>
					<rect x="138.455" y="243.241" style="fill:#BE5A0A;" width="266.509" height="7.454"/>
					<g>
						<path style="fill:#7A232E;" d="M123.14,318.389v8.739c0,4.827,3.913,8.739,8.739,8.739l0,0c4.827,0,8.739-3.913,8.739-8.739
							v-8.739H123.14z"/>
						<path style="fill:#F5FDFF;" d="M140.619,318.389v8.739c0,4.827,3.913,8.739,8.739,8.739h0c4.827,0,8.739-3.913,8.739-8.739
							v-8.739H140.619z"/>
						<path style="fill:#7A232E;" d="M158.098,318.389v8.739c0,4.827,3.913,8.739,8.739,8.739h0c4.827,0,8.739-3.913,8.739-8.739
							v-8.739H158.098z"/>
						<path style="fill:#F5FDFF;" d="M175.576,318.389v8.739c0,4.827,3.913,8.739,8.739,8.739h0c4.827,0,8.739-3.913,8.739-8.739
							v-8.739H175.576z"/>
						<path style="fill:#7A232E;" d="M193.055,318.389v8.739c0,4.827,3.913,8.739,8.739,8.739h0c4.827,0,8.739-3.913,8.739-8.739
							v-8.739H193.055z"/>
						<path style="fill:#F5FDFF;" d="M210.534,318.389v8.739c0,4.827,3.913,8.739,8.739,8.739h0c4.827,0,8.739-3.913,8.739-8.739
							v-8.739H210.534z"/>
						<path style="fill:#7A232E;" d="M228.013,318.389v8.739c0,4.827,3.913,8.739,8.739,8.739l0,0c4.827,0,8.739-3.913,8.739-8.739
							v-8.739H228.013z"/>
						<path style="fill:#F5FDFF;" d="M245.491,318.389v8.739c0,4.827,3.913,8.739,8.739,8.739l0,0c4.827,0,8.739-3.913,8.739-8.739
							v-8.739H245.491z"/>
						<path style="fill:#7A232E;" d="M262.97,318.389v8.739c0,4.827,3.913,8.739,8.739,8.739l0,0c4.827,0,8.739-3.913,8.739-8.739
							v-8.739H262.97z"/>
						<path style="fill:#F5FDFF;" d="M280.449,318.389v8.739c0,4.827,3.913,8.739,8.739,8.739h0c4.827,0,8.739-3.913,8.739-8.739
							v-8.739H280.449z"/>
						<path style="fill:#7A232E;" d="M297.928,318.389v8.739c0,4.827,3.913,8.739,8.739,8.739l0,0c4.827,0,8.739-3.913,8.739-8.739
							v-8.739H297.928z"/>
						<path style="fill:#F5FDFF;" d="M315.406,318.389v8.739c0,4.827,3.913,8.739,8.739,8.739h0c4.827,0,8.739-3.913,8.739-8.739
							v-8.739H315.406z"/>
						<path style="fill:#7A232E;" d="M332.885,318.389v8.739c0,4.827,3.913,8.739,8.739,8.739h0c4.827,0,8.739-3.913,8.739-8.739
							v-8.739H332.885z"/>
						<polygon style="fill:#69161C;" points="404.964,286.163 420.279,318.389 402.8,318.389 389.287,286.163 						"/>
						<polygon style="fill:#E6E6E6;" points="373.61,286.163 389.287,286.163 402.8,318.389 385.321,318.389 						"/>
						<polygon style="fill:#69161C;" points="357.933,286.163 367.843,318.389 385.321,318.389 373.61,286.163 						"/>
						<polygon style="fill:#E6E6E6;" points="342.256,286.163 350.364,318.389 367.843,318.389 357.933,286.163 						"/>
						<path style="fill:#F5FDFF;" d="M350.364,318.389v8.739c0,4.827,3.913,8.739,8.739,8.739l0,0c4.827,0,8.739-3.913,8.739-8.739
							v-8.739H350.364z"/>
						<path style="fill:#7A232E;" d="M367.843,318.389v8.739c0,4.827,3.913,8.739,8.739,8.739h0c4.827,0,8.739-3.913,8.739-8.739
							v-8.739H367.843z"/>
						<path style="fill:#F5FDFF;" d="M385.321,318.389v8.739c0,4.827,3.913,8.739,8.739,8.739l0,0c4.827,0,8.739-3.913,8.739-8.739
							v-8.739H385.321z"/>
						<path style="fill:#7A232E;" d="M402.8,318.389v8.739c0,4.827,3.913,8.739,8.739,8.739l0,0c4.827,0,8.739-3.913,8.739-8.739
							v-8.739H402.8z"/>
						<polygon style="fill:#69161C;" points="326.579,286.163 332.885,318.389 350.364,318.389 342.256,286.163 						"/>
						<polygon style="fill:#E6E6E6;" points="310.902,286.163 315.406,318.389 332.885,318.389 326.579,286.163 						"/>
						<polygon style="fill:#69161C;" points="295.225,286.163 297.928,318.389 315.406,318.389 310.902,286.163 						"/>
						<polygon style="fill:#E6E6E6;" points="297.928,318.389 280.449,318.389 279.548,286.163 295.225,286.163 						"/>
						<polygon style="fill:#69161C;" points="262.97,318.389 263.871,286.163 279.548,286.163 280.449,318.389 						"/>
						<polygon style="fill:#E6E6E6;" points="248.194,286.163 245.491,318.389 262.97,318.389 263.871,286.163 						"/>
						<polygon style="fill:#E6E6E6;" points="154.132,286.163 140.619,318.389 158.098,318.389 169.809,286.163 						"/>
						<polygon style="fill:#E6E6E6;" points="185.486,286.163 175.576,318.389 193.055,318.389 201.163,286.163 						"/>
						<polygon style="fill:#E6E6E6;" points="232.517,286.163 228.013,318.389 210.534,318.389 216.84,286.163 						"/>
						<polygon style="fill:#69161C;" points="248.194,286.163 245.491,318.389 228.013,318.389 232.517,286.163 						"/>
						<polygon style="fill:#69161C;" points="216.84,286.163 210.534,318.389 193.055,318.389 201.163,286.163 						"/>
						<polygon style="fill:#69161C;" points="185.486,286.163 169.809,286.163 158.098,318.389 175.576,318.389 						"/>
						<polygon style="fill:#69161C;" points="154.132,286.163 138.455,286.163 123.14,318.389 140.619,318.389 						"/>
					</g>
				</g>
				<g>
					<rect x="157.585" y="352.066" style="fill:#FFFFFF;" width="137.836" height="97.194"/>
					<rect x="161.416" y="354.748" style="fill:#ADBC8C;" width="130.164" height="91.824"/>
					<polygon style="fill:#BEC99F;" points="291.58,354.748 291.58,359.678 204.721,446.572 161.735,446.572 253.595,354.748 					
						"/>
					<polygon style="fill:#BEC99F;" points="217.454,354.748 161.416,410.75 161.416,367.835 174.503,354.748 					"/>
					<polygon style="fill:#BEC99F;" points="291.58,404.933 291.58,429.689 274.698,446.572 249.942,446.572 					"/>
					<rect x="310.422" y="364.738" style="fill:#FFFFFF;" width="67.074" height="121.837"/>
					<rect x="314.243" y="369.112" style="fill:#ADBC8C;" width="59.443" height="117.467"/>
					<polygon style="fill:#BEC99F;" points="373.686,387.058 373.686,449.622 336.765,486.578 314.243,486.578 314.243,446.501 
											"/>
					<polygon style="fill:#BEC99F;" points="358.967,369.112 314.243,413.835 314.243,379.432 324.564,369.112 					"/>
					<path style="fill:#A16014;" d="M326.05,437.22L326.05,437.22c-2.031,0-3.678-1.647-3.678-3.678v-14.674
						c0-2.031,1.647-3.678,3.678-3.678l0,0c2.031,0,3.678,1.647,3.678,3.678v14.674c0,1.016-0.412,1.935-1.077,2.601
						C327.985,436.809,327.065,437.22,326.05,437.22z"/>
				</g>
			</g>
			<g>
				<path style="fill-rule:evenodd;clip-rule:evenodd;fill:#69161C;" d="M178.669,486.873l2.668-30.794l-7.38-28.039
					c-0.565-1.631-0.044-2.885,1.334-2.943l14.694,0.058c0.754-0.087,1.689,0.493,1.733,1.472l3.255,11.809l4.966,16.673
					l-0.015-0.043c0.138,0.101,0.254,0.217,0.348,0.341l-0.022,0.007l14.208-0.42c1.595,0.848,1.312,3.552-0.928,3.806l2.958,27.271
					l-0.935,0.087l-5.132-27.22l-10.932-0.051l-0.725,4.197l2.805,23.538l-0.928,0.087l-3.182-16.078l-2.689,15.607l-1.189,0.087
					l2.363-23.357l-0.819-4.125l-10.924-0.058l-4.349,28.003L178.669,486.873z M196.277,454.89l-3.291-12.171l-12.178-0.087
					l3.168,12.215L196.277,454.89z M192.616,441.356L191.979,439l-12.128-0.043l0.602,2.305L192.616,441.356z M191.435,436.912
					l-2.312-8.481l-11.823,0.196l2.276,8.286H191.435z"/>
				<path style="fill-rule:evenodd;clip-rule:evenodd;fill:#69161C;" d="M274.176,486.438l-2.668-30.794l7.387-28.047
					c0.558-1.624,0.043-2.878-1.334-2.936l-14.694,0.058c-0.754-0.087-1.696,0.493-1.74,1.472L257.88,438l-4.973,16.673l0.014-0.043
					c-0.13,0.101-0.246,0.217-0.348,0.341h0.022l-14.208-0.413c-1.588,0.848-1.305,3.552,0.935,3.806l-2.958,27.271l0.928,0.087
					l5.14-27.22l10.932-0.058l0.725,4.204l-2.813,23.538l0.928,0.087l3.182-16.078l2.697,15.607l1.182,0.087l-2.356-23.364
					l0.812-4.117l10.932-0.058l4.342,28.003L274.176,486.438z M256.568,454.455l3.291-12.171l12.186-0.087l-3.168,12.207
					L256.568,454.455z M260.229,440.914l0.638-2.349l12.128-0.044l-0.594,2.305L260.229,440.914z M261.41,436.477l2.312-8.481
					l11.823,0.196l-2.269,8.286H261.41z"/>
				<path style="fill-rule:evenodd;clip-rule:evenodd;fill:#69161C;" d="M203.215,440.406v1.095c0,0.449,0.362,0.812,0.812,0.812
					h41.9c0.449,0,0.812-0.362,0.812-0.812v-1.095c0-0.449-0.362-0.812-0.812-0.812h-41.9
					C203.577,439.594,203.215,439.957,203.215,440.406z"/>
				<path style="fill-rule:evenodd;clip-rule:evenodd;fill:#69161C;" d="M225.73,486.315h1.102c0.442,0,0.805-0.37,0.805-0.812
					v-42.886c0-0.449-0.362-0.812-0.805-0.812h-1.102c-0.449,0-0.812,0.362-0.812,0.812v42.886
					C224.918,485.945,225.281,486.315,225.73,486.315z"/>
			</g>
			<g>
				<path style="fill:#69161C;" d="M229.092,376.042v-21.318h-1.822v21.318c-3.969,0.452-7.052,3.82-7.052,7.91h15.926
					C236.145,379.862,233.061,376.495,229.092,376.042z"/>
				<g>
					<path style="fill:#69161C;" d="M188.516,376.042v-21.318h-1.822v21.318c-3.969,0.452-7.052,3.82-7.052,7.91h15.926
						C195.568,379.862,192.484,376.495,188.516,376.042z"/>
					<path style="fill:#69161C;" d="M269.669,376.042v-21.318h-1.822v21.318c-3.969,0.452-7.052,3.82-7.052,7.91h15.926
						C276.721,379.862,273.638,376.495,269.669,376.042z"/>
				</g>
			</g>
			<g>
				
					<path style="fill-rule:evenodd;clip-rule:evenodd;fill:none;stroke:#705550;stroke-width:0.6484;stroke-linecap:round;stroke-linejoin:round;stroke-miterlimit:10;" d="
					M401.402,486.594c0-0.104-4.053-47.775-4.156-47.463c-0.104,0.311-4.993,47.373-4.889,47.373"/>
				<g>
					<polygon style="fill-rule:evenodd;clip-rule:evenodd;fill:#FFFFFF;" points="399.813,438.197 395.424,486.665 392.655,486.665 
						397.362,438.197 					"/>
					<polygon style="fill-rule:evenodd;clip-rule:evenodd;fill:#69161C;" points="369.189,438.171 372.781,479.163 403.464,479.163 
						399.872,438.171 					"/>
					<polygon style="fill-rule:evenodd;clip-rule:evenodd;fill:#69161C;" points="399.898,438.106 396.306,476.076 365.623,476.076 
						369.215,438.106 					"/>
					<polygon style="fill-rule:evenodd;clip-rule:evenodd;fill:#E6E6E6;" points="369.066,438.339 373.845,486.756 376.62,486.756 
						371.51,438.339 					"/>
					<polygon style="fill-rule:evenodd;clip-rule:evenodd;fill:#E6E6E6;" points="397.362,437.983 401.668,486.756 404.437,486.756 
						399.813,437.983 					"/>
					<polygon style="fill-rule:evenodd;clip-rule:evenodd;fill:#FFFFFF;" points="369.669,438.229 370.681,449.861 367.393,486.516 
						364.618,486.516 369.273,438.229 					"/>
				</g>
				
					<path style="fill-rule:evenodd;clip-rule:evenodd;fill:none;stroke:#705550;stroke-width:0.6484;stroke-linecap:round;stroke-linejoin:round;stroke-miterlimit:10;" d="
					M373.832,486.25c0-0.097-4.351-47.139-4.455-46.86c-0.104,0.285-5.096,46.672-4.993,46.672"/>
			</g>
			<g>
				<g>
					<path style="fill-rule:evenodd;clip-rule:evenodd;fill:#69161C;" d="M307.569,395.181c-0.13-0.279-0.18-0.578-0.16-0.868h3.63
						c0.05,0.738-0.359,1.466-1.067,1.785C309.055,396.508,307.978,396.099,307.569,395.181z"/>
					<rect x="308.726" y="395.8" style="fill-rule:evenodd;clip-rule:evenodd;fill:#7A232E;" width="1.037" height="3.4"/>
					<rect x="305.914" y="396.448" style="fill-rule:evenodd;clip-rule:evenodd;fill:#7A232E;" width="6.611" height="1.027"/>
					<rect x="306.003" y="398.831" style="fill-rule:evenodd;clip-rule:evenodd;fill:#7A232E;" width="6.621" height="1.037"/>
					<polygon style="fill-rule:evenodd;clip-rule:evenodd;fill:#E7AA2A;" points="301.815,375.747 305.226,392.24 313.153,392.399 
						317.122,375.667 					"/>
					<path style="fill-rule:evenodd;clip-rule:evenodd;fill:#69161C;" d="M301.825,374.002c0.588-1.276,1.167-2.543,1.745-3.809
						l11.896,0.08l1.426,3.809L301.825,374.002z"/>
					<path style="fill-rule:evenodd;clip-rule:evenodd;fill:#7A232E;" d="M311.946,368.966c0.189,0.419,0.269,0.868,0.239,1.296
						h-5.444c-0.07-1.107,0.538-2.184,1.605-2.662C309.713,366.982,311.338,367.59,311.946,368.966z"/>
					<path style="fill-rule:evenodd;clip-rule:evenodd;fill:#7A232E;" d="M299.831,373.693v1.655c0,0.18,0.14,0.319,0.319,0.319
						h18.148c0.18,0,0.329-0.14,0.329-0.319v-1.655c0-0.18-0.15-0.319-0.329-0.319H300.15
						C299.971,373.374,299.831,373.513,299.831,373.693z"/>
					<path style="fill-rule:evenodd;clip-rule:evenodd;fill:#69161C;" d="M305.515,393.546c-0.279-0.419-0.389-0.848-0.349-1.276
						h7.987c0.1,1.087-0.788,2.144-2.353,2.623C308.785,395.491,306.412,394.892,305.515,393.546z"/>
				</g>
				<path style="fill-rule:evenodd;clip-rule:evenodd;fill:#BB9785;" d="M304.198,371.609L304.198,371.609
					c0,0.349,0.299,0.638,0.658,0.638h1.446c0.359,0,0.658-0.289,0.658-0.638l0,0c0-0.359-0.299-0.648-0.658-0.648h-1.446
					C304.498,370.96,304.198,371.25,304.198,371.609z"/>
				<path style="fill-rule:evenodd;clip-rule:evenodd;fill:#BB9785;" d="M308.636,367.979c0.349-0.16,0.768,0,0.927,0.349
					c0.15,0.349,0,0.758-0.349,0.917c-0.359,0.16-0.768,0-0.927-0.349C308.137,368.547,308.287,368.128,308.636,367.979z"/>
			</g>
			<g>
				<g>
					<g>
						<polygon style="fill:#69161C;" points="357.903,392.486 347.099,377.729 336.303,391.055 336.126,390.913 347.109,377.357 
							358.085,392.352 						"/>
					</g>
					<g>
						
							<rect x="337.782" y="386.495" transform="matrix(0.0658 -0.9978 0.9978 0.0658 -76.167 717.9935)" style="fill:#EDCFBC;" width="15.135" height="26.355"/>
						
							<rect x="339.1" y="385.176" transform="matrix(0.0657 -0.9978 0.9978 0.0657 -73.6125 718.0887)" style="fill:#FFF6EF;" width="15.133" height="26.357"/>
					</g>
					<g>
						<path style="fill:#69161C;" d="M358.617,392.46c-0.025,0.343-0.321,0.603-0.663,0.58c-0.344-0.023-0.604-0.319-0.582-0.662
							c0.023-0.343,0.319-0.603,0.663-0.581C358.38,391.819,358.64,392.117,358.617,392.46z"/>
						<path style="fill:#69161C;" d="M336.837,391.024c-0.025,0.344-0.319,0.604-0.663,0.581c-0.344-0.022-0.604-0.319-0.581-0.663
							c0.023-0.343,0.321-0.603,0.663-0.581C336.599,390.385,336.86,390.681,336.837,391.024z"/>
					</g>
				</g>
				
					<text transform="matrix(0.9964 0.0847 -0.0847 0.9964 335.2183 400.1754)" style="fill:#69161C; font-family:'Montserrat-Bold'; font-size:7.4735px;">OPEN</text>
			</g>
		</g>
		<g style="clip-path:url(#SVGID_00000093865087136939711580000011225617099876540580_);">
			<g>
				<path style="fill-rule:evenodd;clip-rule:evenodd;fill:#FFFFFF;" d="M225.427,235.705c-2.8-1.481-5.409-3.085-7.801-4.798
					l-5.165-4.268l-6.034-1.631c-2.542-0.938-4.988-2.079-7.285-3.479c-16.975-10.207-19.259-29.71-3.724-41.929
					c3.778-2.963,8.182-5.165,12.844-6.632l2.922-0.761l2.61-2.446c1.413-1.196,2.936-2.351,4.539-3.479
					c27.019-18.742,72.944-20.468,103.347-4.295c5.056,2.677,9.459,5.735,13.156,9.092l2.134,2.134l5.436,1.536
					c2.433,0.911,4.784,2.025,6.999,3.343c16.989,10.221,19.272,29.737,3.724,41.942c-4.689,3.683-10.356,6.184-16.309,7.597
					l-4.159,0.734l-3.887,3.031C301.768,250.152,255.83,251.878,225.427,235.705z"/>
				<path style="fill-rule:evenodd;clip-rule:evenodd;fill:#ADBC8C;" d="M227.602,230.744c-5.246-2.773-9.623-5.939-13.156-9.337
					c-4.743-0.883-9.31-2.501-13.251-4.893c-13.822-8.318-15.236-22.779-3.14-32.279c4.227-3.33,9.541-5.6,15.249-6.796
					c2.202-2.283,4.77-4.458,7.733-6.51c25.361-17.614,69.478-19.395,98.454-3.996c6.306,3.357,11.362,7.231,15.168,11.444
					c4.553,0.897,8.889,2.487,12.694,4.757c13.836,8.318,15.236,22.792,3.14,32.306c-5.26,4.118-12.205,6.646-19.53,7.489
					c-1.495,1.318-3.126,2.596-4.906,3.819C300.695,244.362,256.578,246.156,227.602,230.744z"/>
			</g>
			<g>
				<g>
					<path style="fill:#563425;" d="M321.865,216.635h-97.914c-0.94,0-1.703,0.762-1.703,1.703c0,0.94,0.762,1.703,1.703,1.703
						h14.51c0.55,0,1.066,0.266,1.386,0.713l2.326,3.257c0.32,0.447,0.836,0.713,1.386,0.713h58.699c0.55,0,1.066-0.266,1.386-0.713
						l2.326-3.257c0.32-0.447,0.836-0.713,1.386-0.713h14.51c0.94,0,1.703-0.762,1.703-1.703
						C323.568,217.397,322.806,216.635,321.865,216.635z"/>
					<g>
						<g>
							<path style="fill:#563425;" d="M301.182,204.256l-2.807-6.206l15.518-7.02c1.614-0.73,2.658-2.347,2.658-4.12v1.579
								c0-2.493-2.028-4.522-4.522-4.522h-13.692v-6.811h13.692c6.249,0,11.333,5.084,11.333,11.333v-1.579
								c0,4.442-2.615,8.495-6.662,10.326L301.182,204.256z"/>
						</g>
						<g>
							<path style="fill:#68432F;" d="M243.842,168.551v39.809c0,5.041,4.087,9.128,9.128,9.128h39.876
								c5.041,0,9.128-4.087,9.128-9.128v-39.809H243.842z"/>
							<rect x="275.876" y="168.551" style="fill:#563425;" width="4.367" height="48.937"/>
							<path style="fill:#563425;" d="M283.752,168.551v48.937h9.095c5.041,0,9.128-4.087,9.128-9.128v-39.809H283.752z"/>
						</g>
						<g>
							<circle style="fill:#BE5A0A;" cx="272.908" cy="196.292" r="14.902"/>
							<g>
								
									<ellipse transform="matrix(0.7071 -0.7071 0.7071 0.7071 -58.8666 250.468)" style="fill:#68432F;" cx="272.908" cy="196.292" rx="8.772" ry="6.975"/>
								<path style="fill:#563425;" d="M278.625,190.537c0,0-4.96,0.418-5.826,5.288c-0.866,4.87-5.766,6.244-5.766,6.244
									s5.438-0.06,7.111-5.378C275.817,191.374,278.625,190.537,278.625,190.537z"/>
							</g>
						</g>
					</g>
				</g>
			</g>
		</g>
	</g>
</g>
</svg>
