<svg width="30" height="30" viewBox="0 0 30 30" fill="none" xmlns="http://www.w3.org/2000/svg">
<path d="M20.625 2.5V6.25M9.375 2.5V6.25M15 2.5V6.25M10 18.75H15M10 13.75H20M16.25 4.375H13.75C9.625 4.375 7.5625 4.375 6.28125 5.65625C5 6.9375 5 9 5 13.125V18.75C5 22.875 5 24.9375 6.28125 26.2188C7.5625 27.5 9.625 27.5 13.75 27.5H16.25C20.375 27.5 22.4375 27.5 23.7188 26.2188C25 24.9375 25 22.875 25 18.75V13.125C25 9 25 6.9375 23.7188 5.65625C22.4375 4.375 20.375 4.375 16.25 4.375Z" stroke="black" stroke-width="1.5" stroke-linecap="round" stroke-linejoin="round"/>
</svg>
