<svg width="24" height="24" viewBox="0 0 24 24" fill="none" xmlns="http://www.w3.org/2000/svg">
<path fill-rule="evenodd" clip-rule="evenodd" d="M6.06401 5.75C6.02094 5.75003 5.9786 5.76118 5.94111 5.78238C5.90362 5.80358 5.87224 5.8341 5.85001 5.871L3.82201 9.25H20.173L18.146 5.871C18.1238 5.8341 18.0924 5.80358 18.0549 5.78238C18.0174 5.76118 17.9751 5.75003 17.932 5.75H6.06401ZM3.38101 10.75H3.75001V18.5C3.75001 19.466 4.53401 20.25 5.50001 20.25H6.00001C6.46414 20.25 6.90926 20.0656 7.23745 19.7374C7.56564 19.4092 7.75001 18.9641 7.75001 18.5V13.75H9.75001V18.5C9.75001 19.466 10.534 20.25 11.5 20.25H18.5C18.9641 20.25 19.4093 20.0656 19.7374 19.7374C20.0656 19.4092 20.25 18.9641 20.25 18.5V10.75H20.615C20.8362 10.75 21.0534 10.6913 21.2445 10.5799C21.4357 10.4685 21.5938 10.3084 21.7028 10.116C21.8118 9.92348 21.8677 9.70553 21.865 9.48435C21.8622 9.26317 21.8008 9.04669 21.687 8.857L19.432 5.1C19.2766 4.84089 19.0568 4.62642 18.7939 4.47746C18.5311 4.32851 18.2341 4.25014 17.932 4.25H6.06401C5.76188 4.25014 5.46493 4.32851 5.20207 4.47746C4.93921 4.62642 4.71939 4.84089 4.56401 5.1L2.30801 8.857C1.80801 9.69 2.40901 10.75 3.38101 10.75ZM5.25001 18.5V10.75H18.75V18.5C18.75 18.5663 18.7237 18.6299 18.6768 18.6768C18.6299 18.7237 18.5663 18.75 18.5 18.75H11.5C11.4337 18.75 11.3701 18.7237 11.3232 18.6768C11.2763 18.6299 11.25 18.5663 11.25 18.5V13.2C11.25 12.948 11.1499 12.7064 10.9718 12.5282C10.7936 12.3501 10.552 12.25 10.3 12.25H7.20001C6.94805 12.25 6.70642 12.3501 6.52826 12.5282C6.3501 12.7064 6.25001 12.948 6.25001 13.2V18.5C6.25001 18.5663 6.22367 18.6299 6.17679 18.6768C6.1299 18.7237 6.06631 18.75 6.00001 18.75H5.50001C5.43371 18.75 5.37012 18.7237 5.32323 18.6768C5.27635 18.6299 5.25001 18.5663 5.25001 18.5ZM13.25 15.75V13.5H16.75V15.75H13.25ZM12.917 12C12.272 12 11.75 12.522 11.75 13.167V16.083C11.75 16.728 12.272 17.25 12.917 17.25H17.083C17.728 17.25 18.25 16.728 18.25 16.083V13.167C18.25 12.522 17.728 12 17.083 12H12.917Z" fill="#BE802F"/>
</svg>
